<svg width="32" height="32" xmlns="http://www.w3.org/2000/svg" xmlns:xlink="http://www.w3.org/1999/xlink"><defs><path id="a" d="M0 .038h31.638v31.868H0z"/><path id="c" d="M0 30.769h30.547V-.001H0z"/><path id="e" d="M0 30.769h30.547V-.001H0z"/><path id="g" d="M0 30.769h30.547V-.001H0z"/></defs><g fill="none" fill-rule="evenodd"><path d="M0 .091h31.638V31.96H0z" fill="#FFF" fill-rule="nonzero"/><g transform="translate(0 .053)"><mask id="b" fill="#fff"><use xlink:href="#a"/></mask><g mask="url(#b)"><path d="M13.255 1.366c-6.592 0-11.937 5.383-11.937 12.023s5.345 12.023 11.937 12.023c6.593 0 11.937-5.382 11.937-12.023 0-6.64-5.344-12.023-11.937-12.023m0 1.328c5.855 0 10.619 4.797 10.619 10.695 0 5.897-4.764 10.695-10.619 10.695-5.854 0-10.618-4.798-10.618-10.695 0-5.898 4.764-10.695 10.618-10.695" fill="#3C4043"/><path stroke="#3C4043" d="M21.372 21.565l10.027 10.1"/><g transform="translate(1.318 1.366)"><mask id="d" fill="#fff"><use xlink:href="#c"/></mask><path fill="#34A253" mask="url(#d)" d="M10.546 17.262h2.637V6.639h-2.637z"/></g><g transform="translate(1.318 1.366)"><mask id="f" fill="#fff"><use xlink:href="#e"/></mask><path fill="#4280EE" mask="url(#f)" d="M5.273 17.262H7.91v-6.64H5.273z"/></g><g transform="translate(1.318 1.366)"><mask id="h" fill="#fff"><use xlink:href="#g"/></mask><path fill="#F5B605" mask="url(#h)" d="M15.82 17.262h2.636v-5.311h-2.637z"/></g></g></g></g></svg>