<svg height="24" width="24" xmlns="http://www.w3.org/2000/svg" xmlns:xlink="http://www.w3.org/1999/xlink"><defs><path id="a" d="m0 0h24v24h-24z"/><mask id="b" fill="#fff"><use fill="#fff" fill-rule="evenodd" xlink:href="#a"/></mask></defs><g fill="none" fill-rule="evenodd"><use fill="#fff" xlink:href="#a"/><g mask="url(#b)"><g transform="translate(1 1)"><circle cx="10.378" cy="11" fill="#fabb05" r="5"/><path d="m20.75 10.758-5.667 10h-8.666l-5.667-10 5.667-10h8.666z" stroke="#3c4043"/><path d="m9.988.389h1v20h-1z" fill="#3c4043"/><path d="m13.061 6v1h-5.122v-1zm-6.061-2v1h-2v-1zm9 0v1h-2v-1z" fill="#3c4043"/><path d="m17 4v1h-1v-1z" fill="#585b5e"/><g fill="#696c6e"><path d="m16 13v1h-1v-1z"/><path d="m14 10v1h-1v-1zm-6 0v1h-1v-1z" fill-opacity=".75"/><path d="m6 13v1h-1v-1z"/></g><path d="m8 4v1h-1v-1zm6 0v1h-1v-1z" fill="#aaacad"/><path d="m9 13v1h-3v-1zm6 0v1h-3v-1zm-1-10v1h-2v-1zm-8 9v1h-4v-1zm13 0v1h-4v-1z" fill="#3c4043"/></g></g><g fill="#3c4043"><path d="m8.5 3.5h1v2h-1z" mask="url(#b)" transform="matrix(0 1 -1 0 13.5 -4.5)"/><path d="m9 18h5v1h-5zm0-7h5v1h-5zm-3-1h3v1h-3zm8 0h3v1h-3z" mask="url(#b)"/></g></g></svg>