<svg height="33" width="32" xmlns="http://www.w3.org/2000/svg"><g fill="none" fill-rule="evenodd"><path d="m0 .952h32v32h-32z" fill="#fff" fill-opacity=".01"/><path d="m16.762 14.667 7.618-10.667h-15.237z" fill="#e44335" fill-rule="nonzero"/><path d="m5.41 10.857c-.473 0-.912.125-1.25.42-.32.281-.535.702-.635 1.26l-2.762 15.627c.016.404.185.767.451 1.033.28.28.666.453 1.162.457 0 0 1.563.05 2.71-1.725l3.353-5.205h16.646l3.354 5.207c.407.628.858 1.036 1.284 1.295.764.46 1.427.427 1.494.424l-1.218-17.114c-.045-.258-.158-.451-.588-.62-.622-.247-1.65-.435-3.374-.592-3.479-.317-9.64-.466-20.626-.466h-.001z" stroke="#3c4043"/><g fill="#3c4043" fill-rule="nonzero"><path d="m9.143 13.143h1.524v7.619h-1.524z"/><path d="m13.714 16.19v1.524h-7.619v-1.524h7.62zm-3.047-3.047v1.524h-1.524v-1.524zm13.714 0v1.524h-1.524v-1.524zm-13.714 6.095v1.524h-1.524v-1.524zm13.714 0v1.524h-1.524v-1.524z"/><path d="m13.714 17.714h-1.524v-1.524h1.524zm13.715 0h-1.524v-1.524h1.524zm-19.81 0h-1.524v-1.524h1.525v1.524zm13.714 0h-1.523v-1.524h1.523z"/></g></g></svg>