<svg height="20" width="22" xmlns="http://www.w3.org/2000/svg" xmlns:xlink="http://www.w3.org/1999/xlink"><mask id="a" fill="#fff"><path d="m0 0h24v24h-24z" fill="#fff" fill-rule="evenodd"/></mask><mask id="b" fill="#fff"><path d="m0 0h19v20h-19z" fill="#fff" fill-rule="evenodd"/></mask><g fill="none" fill-rule="evenodd"><g mask="url(#a)" transform="translate(-1 -3)"><g transform="translate(1 2)"><g fill="#fff" stroke="#3c4043"><path d="m.598 11.794h17v3h-17z" mask="url(#b)" transform="matrix(.5 .8660254 -.8660254 .5 16.061942 -1.232099)"/><circle cx="4" cy="4.5" r="3"/><circle cx="16" cy="4.5" r="3"/><circle cx="4" cy="4.5" r="1"/></g><path d="m2 20h18v1h-18zm7-16h4v1h-4z" fill="#3c4043"/><path d="m7.5 3.5h3v2h-3z" fill="#fff" stroke="#3c4043"/></g></g><path d="m15 2h6v3h-6z" fill="#fff"/><path d="m16 2h6v3h-6z" fill="#34a353"/></g></svg>