<svg width="24" height="24" viewBox="0 0 24 24" xmlns="http://www.w3.org/2000/svg" xmlns:xlink="http://www.w3.org/1999/xlink"><defs><path id="a" d="M0 0h24v24H0z"/></defs><g fill="none" fill-rule="evenodd"><mask id="b" fill="#fff"><use xlink:href="#a"/></mask><use fill="#FFF" xlink:href="#a"/><g mask="url(#b)"><path stroke="#4280EE" stroke-width="2" d="M6.8 17.83L.727 12.098 6.8 6.363"/><path stroke="#34A253" stroke-width="2" d="M17.043 17.83l6.071-5.733-6.07-5.734"/><path d="M11.921 7.86a4.237 4.237 0 1 0 0 8.473 4.237 4.237 0 0 0 0-8.474m0 1a3.241 3.241 0 0 1 3.237 3.237 3.241 3.241 0 0 1-3.237 3.238 3.241 3.241 0 0 1-3.237-3.238 3.241 3.241 0 0 1 3.237-3.237" fill="#3C4043"/></g></g></svg>