<svg height="36" viewBox="0 0 36 36" width="36" xmlns="http://www.w3.org/2000/svg"><g fill="none" fill-rule="evenodd"><g fill-rule="evenodd"><circle cx="18.75" cy="30.75" fill="#fabb05" r="3.75"/><circle cx="27.75" cy="30.75" fill="#4280ee" r="3.75"/><circle cx="9.75" cy="30.75" fill="#e44335" r="3.75"/><circle cx="27.988849" cy="18.109539" fill="#fff" r="2.482759" stroke="#3c4043"/><circle cx="9.937125" cy="18.109539" fill="#fff" r="2.482759" stroke="#3c4043"/><path d="m9 21h1.5v10.5h-1.5z" fill="#3c4043"/><path d="m27 21h1.5v10.5h-1.5z" fill="#3c4043"/><circle cx="18.988849" cy="18.109539" fill="#fff" r="2.482759" stroke="#3c4043"/><path d="m18 21h1.5v10.5h-1.5z" fill="#3c4043"/></g><path d="m10.6679933 24.5526316h17.2695067c3.6223737 0 6.5625-3.0173684 6.5625-6.7350735 0-3.5561842-2.6971608-6.4390345-6.096492-6.6882523-.8926555-4.63381578-4.8758331-8.1293058-9.653265-8.1293058-3.7934215 0-7.0809886 2.20902087-8.7280521 5.43522686-3.94430308.43798911-7.0221909 3.86609614-7.0221909 8.03516784 0 4.4653585 3.52421557 8.0822369 7.875243 8.0822369" stroke="#3c4043"/></g></svg>