<svg height="24" viewBox="0 0 24 24" width="24" xmlns="http://www.w3.org/2000/svg" xmlns:xlink="http://www.w3.org/1999/xlink"><defs><path id="a" d="m0 0h24v24h-24z"/><mask id="b" fill="#fff"><use fill="#fff" fill-rule="evenodd" xlink:href="#a"/></mask></defs><g fill="none" fill-rule="evenodd"><use fill="#fff" xlink:href="#a"/><g mask="url(#b)"><g transform="translate(0 .5283)"><g fill-rule="evenodd"><path d="m19.4999383 22.069588c-1.4340518-.8288474-1.9261923-2.6625229-1.0972669-4.0975261.827839-1.4350031 2.6627736-1.926011 4.0968254-1.0982499 1.4351383.8277611 1.9261924 2.6625229 1.0983534 4.0975261-.8289255 1.4350031-2.6627736 1.926011-4.0979119 1.0982499" fill="#34a253"/><path d="m15.2365 3.4715c0 1.6564084-1.3427485 3-3.0005432 3-1.6567083 0-2.9994568-1.3435916-2.9994568-3s1.3427485-3 2.9994568-3c1.6577947 0 3.0005432 1.3435916 3.0005432 3" fill="#4280ee"/><path d="m4.50018233 22.069588c1.43393648-.8288474 1.92603741-2.6625229 1.09717867-4.0975261-.82777242-1.4350031-2.66255932-1.926011-4.0964958-1.0982499-1.43502279.8277611-1.92712372 2.6625229-1.09826498 4.0975261.82885873 1.4350031 2.66255932 1.926011 4.09758211 1.0982499l-1.50018233-1.4211369" fill="#fabb05"/></g><path d="m11.9905 13.8995.015-10.666" fill="none" stroke="#3c4043"/><path d="m11.9949 13.8995-9.229 5.346" fill="none" stroke="#3c4043"/><path d="m12.0051 13.8995 9.229 5.346" fill="none" stroke="#3c4043"/><path d="m11.9944 17.6339c-.651-.001-1.296-.174-1.863-.501-1.783-1.029-2.396-3.317-1.367-5.101.665-1.152 1.905-1.868 3.237-1.868.651 0 1.295.174 1.863.501.864.499 1.482 1.304 1.74 2.268.258.963.125 1.97-.373 2.833-.665 1.152-1.905 1.868-3.237 1.868" fill="#fff" fill-rule="evenodd"/><path d="m12.0017 9.6651c-1.463 0-2.886.759-3.67 2.117-1.169 2.025-.476 4.614 1.549 5.783.667.385 1.395.569 2.113.569 1.464 0 2.886-.76 3.671-2.118 1.169-2.025.475-4.615-1.55-5.784-.667-.384-1.395-.567-2.113-.567m0 1c.563 0 1.122.149 1.613.434.748.431 1.283 1.129 1.507 1.963.223.834.109 1.706-.324 2.454-.575.998-1.65 1.618-2.804 1.618-.563 0-1.121-.151-1.613-.435-.748-.431-1.283-1.129-1.506-1.963-.224-.835-.109-1.706.323-2.454.576-.998 1.65-1.617 2.804-1.617" fill="#3c4043" fill-rule="evenodd"/></g></g></g></svg>